<svg width="38" height="32" viewBox="0 0 38 32" fill="none" xmlns="http://www.w3.org/2000/svg">
<path d="M21.625 3.69373H16.375C16.201 3.69373 16.034 3.62952 15.911 3.51524C15.7879 3.40096 15.7188 3.24597 15.7188 3.08435V0.646851C15.7188 0.485234 15.7879 0.330237 15.911 0.215958C16.034 0.101678 16.201 0.0374756 16.375 0.0374756H21.625C21.799 0.0374756 21.966 0.101678 22.089 0.215958C22.2121 0.330237 22.2812 0.485234 22.2812 0.646851V3.08435C22.2812 3.24597 22.2121 3.40096 22.089 3.51524C21.966 3.62952 21.799 3.69373 21.625 3.69373ZM17.0312 2.47498H20.9688V1.25623H17.0312V2.47498Z" fill="white"/>
<path d="M21.625 9.78746C21.6244 10.2721 21.4168 10.7368 21.0477 11.0796C20.6786 11.4223 20.1782 11.6151 19.6562 11.6156H18.3438C17.8218 11.6151 17.3214 11.4223 16.9523 11.0796C16.5832 10.7368 16.3756 10.2721 16.375 9.78746H13.75C12.8105 9.78776 11.8938 9.51881 11.125 9.01733V15.2718C11.125 15.4335 11.1941 15.5885 11.3172 15.7027C11.4403 15.817 11.6072 15.8812 11.7812 15.8812H26.2188C26.3928 15.8812 26.5597 15.817 26.6828 15.7027C26.8059 15.5885 26.875 15.4335 26.875 15.2718V9.01733C26.1062 9.51877 25.1895 9.78772 24.25 9.78746H21.625Z" fill="white"/>
<path d="M26.875 2.47498H11.125C10.951 2.47498 10.784 2.53918 10.661 2.65346C10.5379 2.76774 10.4688 2.92273 10.4688 3.08435V5.52185C10.4698 6.32964 10.8158 7.10407 11.4309 7.67527C12.0461 8.24646 12.8801 8.56777 13.75 8.56873H16.375C16.3756 8.08404 16.5832 7.61936 16.9523 7.27663C17.3214 6.93391 17.8218 6.74113 18.3438 6.7406H19.6562C20.1782 6.74113 20.6786 6.93391 21.0477 7.27663C21.4168 7.61936 21.6244 8.08404 21.625 8.56873H24.25C25.1199 8.56777 25.9539 8.24646 26.5691 7.67527C27.1842 7.10407 27.5302 6.32964 27.5312 5.52185V3.08435C27.5312 2.92273 27.4621 2.76774 27.339 2.65346C27.216 2.53918 27.049 2.47498 26.875 2.47498Z" fill="white"/>
<path d="M19.6562 7.95935H18.3438C17.9813 7.95935 17.6875 8.23218 17.6875 8.56873V9.78748C17.6875 10.124 17.9813 10.3969 18.3438 10.3969H19.6562C20.0187 10.3969 20.3125 10.124 20.3125 9.78748V8.56873C20.3125 8.23218 20.0187 7.95935 19.6562 7.95935Z" fill="white"/>
<path d="M6.53125 18.1562H1.28125C0.918813 18.1562 0.625 18.4291 0.625 18.7656V30.9531C0.625 31.2897 0.918813 31.5625 1.28125 31.5625H6.53125C6.89369 31.5625 7.1875 31.2897 7.1875 30.9531V18.7656C7.1875 18.4291 6.89369 18.1562 6.53125 18.1562Z" fill="#2F73F2"/>
<path d="M36.6643 14.8064C35.9713 14.1605 35.0455 13.7756 34.0652 13.7256C33.0848 13.6757 32.1192 13.9644 31.3544 14.536L24.7558 19.4376C25.4191 19.9512 25.9527 20.5939 26.3189 21.3202C26.6851 22.0465 26.8749 22.8386 26.875 23.6406C26.874 24.4484 26.5279 25.2228 25.9128 25.794C25.2977 26.3652 24.4637 26.6865 23.5938 26.6875H15.7188C15.5447 26.6875 15.3778 26.6233 15.2547 26.509C15.1316 26.3947 15.0625 26.2397 15.0625 26.0781C15.0625 25.9165 15.1316 25.7615 15.2547 25.6472C15.3778 25.5329 15.5447 25.4687 15.7188 25.4687H23.5938C24.1157 25.4682 24.6161 25.2754 24.9852 24.9327C25.3543 24.59 25.5619 24.1253 25.5625 23.6406C25.5619 22.9643 25.3878 22.2979 25.0548 21.6965C24.7217 21.0951 24.2392 20.576 23.6472 20.1821C23.4838 20.071 23.3125 19.9703 23.1344 19.8808C23.0832 19.8552 23.0294 19.8341 22.9769 19.8103C22.8328 19.7448 22.6851 19.6865 22.5342 19.6357C22.4788 19.617 22.4246 19.596 22.3683 19.5792C22.1763 19.5229 21.9804 19.4784 21.7821 19.4462C21.729 19.4373 21.6752 19.4305 21.6215 19.4233C21.4054 19.393 21.1873 19.3769 20.9688 19.375H17.215C15.5454 18.5448 13.6748 18.1253 11.7812 18.1562C10.6726 18.1532 9.56867 18.2905 8.5 18.5645V30.3437H22.5044C23.3522 30.3439 24.1901 30.1744 24.961 29.8467C25.732 29.519 26.4177 29.0409 26.9716 28.4448L36.7896 17.8896C37.1892 17.4549 37.3981 16.8965 37.3749 16.3253C37.3517 15.7542 37.0981 15.212 36.6643 14.8064Z" fill="#2F73F2"/>
</svg>
