<svg width="128" height="32" viewBox="0 0 128 32" fill="none" xmlns="http://www.w3.org/2000/svg">
<path d="M121.757 24.3659C120.452 24.3659 119.306 24.1584 118.318 23.7433C117.329 23.3084 116.539 22.7155 115.946 21.9644C115.353 21.2133 114.997 20.3436 114.878 19.3553H118.703C118.822 19.9285 119.138 20.4226 119.652 20.8377C120.186 21.233 120.867 21.4307 121.698 21.4307C122.528 21.4307 123.131 21.2627 123.506 20.9266C123.902 20.5906 124.099 20.2052 124.099 19.7703C124.099 19.1378 123.823 18.7129 123.269 18.4954C122.716 18.2582 121.945 18.0309 120.956 17.8135C120.324 17.6751 119.682 17.5071 119.029 17.3095C118.377 17.1118 117.774 16.8647 117.221 16.5683C116.687 16.252 116.252 15.8567 115.916 15.3823C115.58 14.8882 115.412 14.2853 115.412 13.5737C115.412 12.2692 115.926 11.1722 116.954 10.2827C118.001 9.39322 119.464 8.94849 121.342 8.94849C123.081 8.94849 124.465 9.35369 125.493 10.1641C126.54 10.9745 127.163 12.0913 127.361 13.5144H123.773C123.556 12.4273 122.735 11.8837 121.312 11.8837C120.601 11.8837 120.047 12.0221 119.652 12.2988C119.276 12.5755 119.089 12.9214 119.089 13.3365C119.089 13.7714 119.375 14.1173 119.948 14.3742C120.522 14.6312 121.283 14.8684 122.231 15.0858C123.259 15.323 124.198 15.5898 125.048 15.8863C125.918 16.1631 126.61 16.588 127.123 17.1612C127.637 17.7147 127.894 18.5152 127.894 19.5628C127.914 20.472 127.677 21.2923 127.183 22.0237C126.689 22.755 125.977 23.3282 125.048 23.7433C124.119 24.1584 123.022 24.3659 121.757 24.3659Z" fill="#FFFFFF"/>
<path d="M103.778 24.3658C101.94 24.3658 100.517 23.7926 99.5086 22.6462C98.5203 21.4998 98.0261 19.8197 98.0261 17.6059V9.3042H101.792V17.2501C101.792 18.5151 102.048 19.4837 102.562 20.1557C103.076 20.8277 103.887 21.1638 104.994 21.1638C106.041 21.1638 106.901 20.7882 107.573 20.0371C108.265 19.286 108.611 18.2384 108.611 16.8943V9.3042H112.406V24.0101H109.056L108.759 21.5196C108.304 22.3893 107.642 23.0811 106.773 23.595C105.923 24.1089 104.924 24.3658 103.778 24.3658Z" fill="#FFFFFF"/>
<path d="M80.8477 24.0101V9.30427H84.198L84.4945 11.7948C84.9491 10.9251 85.6014 10.2333 86.4513 9.71936C87.321 9.20544 88.3389 8.94849 89.5051 8.94849C91.3236 8.94849 92.7369 9.5217 93.7449 10.6681C94.753 11.8145 95.257 13.4947 95.257 15.7084V24.0101H91.462V16.0642C91.462 14.7992 91.205 13.8307 90.6911 13.1586C90.1772 12.4866 89.3767 12.1506 88.2895 12.1506C87.2222 12.1506 86.3426 12.5261 85.6508 13.2772C84.9787 14.0283 84.6427 15.0759 84.6427 16.42V24.0101H80.8477Z" fill="#FFFFFF"/>
<path d="M70.8959 24.3659C69.4134 24.3659 68.099 24.0497 66.9526 23.4172C65.8062 22.7846 64.9068 21.8952 64.2545 20.7488C63.6023 19.6023 63.2761 18.278 63.2761 16.7758C63.2761 15.2538 63.5924 13.8999 64.2249 12.7139C64.8772 11.5279 65.7666 10.6088 66.8933 9.95655C68.0397 9.28451 69.3838 8.94849 70.9255 8.94849C72.3685 8.94849 73.6434 9.26474 74.7503 9.89725C75.8571 10.5298 76.717 11.3995 77.3297 12.5064C77.9622 13.5935 78.2785 14.8091 78.2785 16.1532C78.2785 16.3706 78.2686 16.5979 78.2488 16.8351C78.2488 17.0723 78.2389 17.3194 78.2192 17.5763H67.0415C67.1206 18.7227 67.5159 19.6221 68.2275 20.2744C68.9588 20.9266 69.8384 21.2528 70.8662 21.2528C71.6371 21.2528 72.2795 21.0848 72.7934 20.7488C73.3271 20.393 73.7224 19.9384 73.9794 19.3849H77.8337C77.557 20.3139 77.0925 21.1638 76.4402 21.9347C75.8077 22.6858 75.0171 23.2788 74.0683 23.7136C73.1393 24.1485 72.0818 24.3659 70.8959 24.3659ZM70.9255 12.032C69.9965 12.032 69.1763 12.2988 68.4647 12.8325C67.7531 13.3464 67.2985 14.137 67.1008 15.2044H74.4241C74.3648 14.2359 74.009 13.465 73.3568 12.8918C72.7045 12.3186 71.8941 12.032 70.9255 12.032Z" fill="#FFFFFF"/>
<path d="M52.6817 24.0101L47.2856 9.3042H51.2586L54.9944 20.4225L58.7301 9.3042H62.7031L57.2773 24.0101H52.6817Z" fill="#FFFFFF"/>
<path d="M9.07442 22.8077L13.3774 12.1963H3.65994C1.94741 12.1963 0.808858 14.0116 1.52019 15.6079L4.76246 22.884C5.61571 24.7988 8.28619 24.7516 9.07442 22.8077Z" fill="#46C4FF"/>
<path d="M32.4572 1H25.073C23.3354 1 21.7689 2.07281 21.1042 3.71802L11.4163 27.6986C10.0715 30.2249 8.56803 30.9522 7.98438 31H20.821C22.5493 31 24.1092 29.9386 24.7799 28.3064L34.6252 4.3458C35.278 2.75701 34.1395 1 32.4572 1Z" fill="#2F73F2"/>
</svg>
