<svg width="34" height="34" viewBox="0 0 34 34" fill="none" xmlns="http://www.w3.org/2000/svg">
<g clip-path="url(#clip0_19_63)">
<path d="M0.405078 12.1477L2.05859 10.9279V16.3499L0 15.3253V12.9493C0 12.6332 0.150078 12.3357 0.405078 12.1477Z" fill="#2F73F2"/>
<path d="M34 12.9493V15.3253L31.9414 16.3499V10.9279L33.5949 12.1477C33.8499 12.3357 34 12.6332 34 12.9493Z" fill="#2F73F2"/>
<path d="M34 17.5505V33.0039C34 33.5538 33.5537 34 33.0039 34H0.996094C0.44625 34 0 33.5538 0 33.0039V17.5505C0.998949 18.048 15.5813 25.309 16.5557 25.7942C16.6959 25.8639 16.8479 25.8985 17 25.8985C17.1521 25.8985 17.3041 25.8639 17.4443 25.7942C18.3919 25.3224 33.7767 17.6617 34 17.5505Z" fill="#2F73F2"/>
<path d="M19.9883 1.99219H14.0117L16.4023 0.199219C16.7563 -0.0664062 17.2437 -0.0664062 17.5977 0.199219L19.9883 1.99219Z" fill="#2F73F2"/>
<path d="M28.9531 3.98438H5.04688C4.49703 3.98438 4.05078 4.43063 4.05078 4.98047V17.342L17 23.79L29.9492 17.342V4.98047C29.9492 4.43063 29.503 3.98438 28.9531 3.98438ZM17 15.9375H11.0234C10.4736 15.9375 10.0273 15.4913 10.0273 14.9414C10.0273 14.3916 10.4736 13.9453 11.0234 13.9453H17C17.5498 13.9453 17.9961 14.3916 17.9961 14.9414C17.9961 15.4913 17.5498 15.9375 17 15.9375ZM22.9766 11.9531H11.0234C10.4736 11.9531 10.0273 11.5069 10.0273 10.957C10.0273 10.4072 10.4736 9.96094 11.0234 9.96094H22.9766C23.5264 9.96094 23.9727 10.4072 23.9727 10.957C23.9727 11.5069 23.5264 11.9531 22.9766 11.9531Z" fill="white"/>
</g>
<defs>
<clipPath id="clip0_19_63">
<rect width="34" height="34" fill="white"/>
</clipPath>
</defs>
</svg>
